<svg aria-hidden="true" style="width:0;height:0;position:absolute;overflow:hidden" xmlns="http://www.w3.org/2000/svg"><defs><symbol id="icon-burger" viewBox="0 0 32 32"><path style="fill:var(--color1, )" d="M32 16c0 8.837-7.163 16-16 16S0 24.837 0 16 7.163 0 16 0s16 7.163 16 16z"/><path style="fill:var(--color1, )" d="M16 29.333C8.648 29.333 2.667 23.352 2.667 16S8.648 2.667 16 2.667 29.333 8.648 29.333 16 23.352 29.333 16 29.333z"/><path style="fill:var(--color1, )" opacity=".3" d="M12.861 10.931a1.931 1.931 0 1 1-3.862 0 1.931 1.931 0 0 1 3.862 0zM18.431 10.931a1.931 1.931 0 1 1-3.862 0 1.931 1.931 0 0 1 3.862 0zM24 10.931a1.931 1.931 0 1 1-3.862 0 1.931 1.931 0 0 1 3.862 0zM12.861 16.5a1.931 1.931 0 1 1-3.862 0 1.931 1.931 0 0 1 3.862 0zM18.431 16.5a1.931 1.931 0 1 1-3.862 0 1.931 1.931 0 0 1 3.862 0zM24 16.5a1.931 1.931 0 1 1-3.862 0 1.931 1.931 0 0 1 3.862 0zM12.861 22.069a1.931 1.931 0 1 1-3.862 0 1.931 1.931 0 0 1 3.862 0zM18.431 22.069a1.931 1.931 0 1 1-3.862 0 1.931 1.931 0 0 1 3.862 0zM24 22.069a1.931 1.931 0 1 1-3.862 0 1.931 1.931 0 0 1 3.862 0z"/><path fill="#B1CFE1" style="fill:var(--color2,#b1cfe1)" d="M12.361 10.431a1.931 1.931 0 1 1-3.862 0 1.931 1.931 0 0 1 3.862 0zM17.931 10.431a1.931 1.931 0 1 1-3.862 0 1.931 1.931 0 0 1 3.862 0zM23.5 10.431a1.931 1.931 0 1 1-3.862 0 1.931 1.931 0 0 1 3.862 0zM12.361 16a1.931 1.931 0 1 1-3.862 0 1.931 1.931 0 0 1 3.862 0zM17.931 16a1.931 1.931 0 1 1-3.862 0 1.931 1.931 0 0 1 3.862 0zM23.5 16a1.931 1.931 0 1 1-3.862 0 1.931 1.931 0 0 1 3.862 0zM12.361 21.569a1.931 1.931 0 1 1-3.862 0 1.931 1.931 0 0 1 3.862 0zM17.931 21.569a1.931 1.931 0 1 1-3.862 0 1.931 1.931 0 0 1 3.862 0zM23.5 21.569a1.931 1.931 0 1 1-3.862 0 1.931 1.931 0 0 1 3.862 0z"/></symbol><symbol id="icon-close" viewBox="0 0 32 32"><path d="M16 2.667C8.636 2.667 2.667 8.637 2.667 16S8.637 29.333 16 29.333c7.364 0 13.333-5.97 13.333-13.333 0-7.364-5.97-13.333-13.333-13.333zm3.613 15.053a1.333 1.333 0 0 1 0 1.894 1.333 1.333 0 0 1-1.894 0l-1.72-1.733-1.72 1.733a1.333 1.333 0 0 1-1.894 0 1.333 1.333 0 0 1 0-1.894L14.118 16l-1.733-1.72a1.339 1.339 0 0 1 1.894-1.894l1.72 1.733 1.72-1.733a1.339 1.339 0 0 1 1.894 1.894L17.88 16z"/></symbol><symbol id="icon-search" viewBox="0 0 32 32"><path d="m31.008 27.231-7.58-6.447c-.784-.705-1.622-1.029-2.299-.998a11.954 11.954 0 0 0 2.87-7.787c0-6.627-5.373-12-12-12s-12 5.373-12 12 5.373 12 12 12c2.972 0 5.691-1.081 7.787-2.87-.031.677.293 1.515.998 2.299l6.447 7.58c1.104 1.226 2.907 1.33 4.007.23s.997-2.903-.23-4.007zM12 20a8 8 0 1 1 0-16 8 8 0 0 1 0 16z"/></symbol><symbol id="icon-circle-up" viewBox="0 0 32 32"><path d="M0 16c0 8.837 7.163 16 16 16s16-7.163 16-16S24.837 0 16 0 0 7.163 0 16zm29 0c0 7.18-5.82 13-13 13S3 23.18 3 16 8.82 3 16 3s13 5.82 13 13z"/><path d="m22.086 20.914 2.829-2.829-8.914-8.914-8.914 8.914 2.828 2.828 6.086-6.086z"/></symbol></defs></svg>