<svg aria-hidden="true" style="width:0;height:0;position:absolute;overflow:hidden" xmlns="http://www.w3.org/2000/svg"><defs><symbol id="icon-youtube-icon" viewBox="0 0 32 32"><path style="fill:var(--color1, )" d="M31.302 8.298a4.047 4.047 0 0 0-2.806-2.828l-.028-.007c-2.485-.678-12.487-.678-12.487-.678s-10.002.02-12.488.699A4.047 4.047 0 0 0 .665 8.29l-.007.028C.001 10.804.001 16 .001 16s0 5.197.678 7.702a4.047 4.047 0 0 0 2.806 2.828l.028.007c2.485.678 12.488.678 12.488.678s10.002 0 12.488-.678a4.047 4.047 0 0 0 2.828-2.806l.007-.028c.677-2.485.677-7.703.677-7.703s-.02-5.197-.698-7.702z"/><path fill="#433840" style="fill:var(--color2,#433840)" d="M12.796 20.806 21.093 16l-8.298-4.806z"/></symbol><symbol id="icon-search" viewBox="0 0 32 32"><path d="m31.008 27.231-7.58-6.447c-.784-.705-1.622-1.029-2.299-.998a11.954 11.954 0 0 0 2.87-7.787c0-6.627-5.373-12-12-12s-12 5.373-12 12 5.373 12 12 12c2.972 0 5.691-1.081 7.787-2.87-.031.677.293 1.515.998 2.299l6.447 7.58c1.104 1.226 2.907 1.33 4.007.23s.997-2.903-.23-4.007zM12 20a8 8 0 1 1 0-16 8 8 0 0 1 0 16z"/></symbol><symbol id="icon-circle-up" viewBox="0 0 32 32"><path d="M0 16c0 8.837 7.163 16 16 16s16-7.163 16-16S24.837 0 16 0 0 7.163 0 16zm29 0c0 7.18-5.82 13-13 13S3 23.18 3 16 8.82 3 16 3s13 5.82 13 13z"/><path d="m22.086 20.914 2.829-2.829-8.914-8.914-8.914 8.914 2.828 2.828 6.086-6.086z"/></symbol></defs></svg>