<svg aria-hidden="true" style="width:0;height:0;position:absolute;overflow:hidden" xmlns="http://www.w3.org/2000/svg"><defs><symbol id="icon-fb_icon" viewBox="0 0 32 32"><path d="M16.175 31.7C7.525 31.738.413 24.538.619 15.744.813 7.369 7.75.45 16.375.544c8.544.094 15.613 7.206 15.381 16.012-.219 8.337-7.1 15.188-15.581 15.144zM2.513 16.144c.069 7.831 6.419 13.863 13.919 13.731 7.262-.131 13.419-6.05 13.419-13.75 0-7.831-6.4-13.887-13.925-13.744C8.664 2.512 2.563 8.45 2.514 16.143z"/><path d="M12.925 27.087V16.068h-2.406v-3.713c.106-.006.213-.019.325-.019.581 0 1.169-.012 1.75.006.256.006.344-.063.338-.325-.012-.95-.012-1.894-.006-2.844.006-1.069.306-2.037 1.069-2.813a4.085 4.085 0 0 1 2.706-1.219c1.65-.094 3.306-.081 4.963-.112.019 0 .038.019.075.037v3.813c-.119.006-.231.012-.337.012h-2.25c-.756.006-1.2.456-1.2 1.2 0 .706 0 1.419.006 2.125 0 .019.012.037.031.106h3.8c-.163 1.269-.313 2.481-.475 3.738h-3.375v11.037c-1.681-.012-3.319-.012-5.012-.012z"/></symbol><symbol id="icon-instagram" viewBox="0 0 32 32"><path d="M31.563 16.063c0 2.175-.044 4.356.012 6.531.094 3.85-2.325 6.825-5.406 8.15a9.785 9.785 0 0 1-3.881.813c-4.206.006-8.419.063-12.625-.019-3.169-.063-5.775-1.387-7.644-4-.981-1.375-1.45-2.938-1.45-4.631V9.469c0-3.656 1.781-6.213 4.944-7.875C6.888.875 8.382.569 9.938.563c4.081 0 8.169-.025 12.25.012 3.169.025 5.813 1.238 7.762 3.787 1.087 1.425 1.613 3.063 1.613 4.862v6.838zm-28.688 0v6.875c0 1.025.237 1.988.769 2.856 1.394 2.281 3.5 3.394 6.112 3.438 4.194.063 8.394.025 12.594.012a6.826 6.826 0 0 0 2.962-.656c2.538-1.212 3.956-3.144 3.944-6.044-.025-4.438-.006-8.875-.006-13.313 0-1.256-.356-2.406-1.1-3.419-1.438-1.944-3.425-2.9-5.8-2.925-4.188-.05-8.375-.019-12.563-.013-.894 0-1.756.181-2.594.494-2.3.856-4.438 3.025-4.338 6.219.075 2.162.019 4.319.019 6.475z"/><path d="M16.1 22.688c-4.031 0-7.281-3.212-7.287-7.213-.006-3.938 3.269-7.162 7.275-7.162 4.019-.006 7.281 3.213 7.287 7.181 0 3.963-3.256 7.187-7.275 7.194zm0-2.313c2.744 0 4.969-2.194 4.962-4.894-.006-2.675-2.231-4.863-4.962-4.863-2.744 0-4.981 2.181-4.981 4.875.006 2.7 2.238 4.887 4.981 4.881zM24.219 6.125c.844 0 1.531.719 1.531 1.6-.006.881-.7 1.594-1.544 1.588-.831-.006-1.512-.719-1.512-1.581-.006-.881.681-1.606 1.525-1.606z"/></symbol><symbol id="icon-Twitter" viewBox="0 0 32 32"><path d="M16.009 2.481C8.555 2.481 2.491 8.545 2.491 16s6.064 13.519 13.518 13.519c7.454 0 13.519-6.064 13.519-13.519S23.463 2.481 16.009 2.481zm0 25.704C9.29 28.185 3.824 22.719 3.824 16S9.29 3.815 16.009 3.815 28.195 9.281 28.195 16s-5.467 12.185-12.186 12.185z"/><path d="M22.046 11.596a2.931 2.931 0 0 0 1.405-1.66s-.845.611-1.995.683l-.021.012a3.222 3.222 0 0 0-5.501 2.96l-.016-.023s-3.451.198-6.705-3.362c0 0-1.438 2.445 1.024 4.314-.539.09-1.492-.396-1.492-.396s.054 2.57 2.606 3.2c-.413.108-1.186.144-1.438.036 0 0 .377 1.959 2.984 2.301-.665.378-1.905 1.528-4.71 1.312 0 0 2.014 1.654 5.753 1.42s6.453-2.75 7.55-5.411c1.096-2.66.791-4.175.791-4.175s.916-.481 1.546-1.631c-.291.087-1.37.351-1.771.448l-.012-.028z"/></symbol><symbol id="icon-youtube" viewBox="0 0 32 32"><path style="fill:var(--color1, )" d="M13.731 19.581a.563.563 0 0 1-.282-1.05l4.912-2.844-4.069-2.419v3.087c0 .313-.25.563-.563.563s-.563-.25-.563-.563V12.28c0-.2.106-.387.287-.488s.394-.1.569.006l5.744 3.419c.169.1.275.287.275.488s-.106.381-.281.481l-5.744 3.325a.669.669 0 0 1-.287.069z"/><path style="fill:var(--color1, )" d="M24.1 24H7.65c-.313 0-.563-.25-.563-.563s.25-.563.563-.563H24.1a2.05 2.05 0 0 0 2.038-2.056v-9.637A2.046 2.046 0 0 0 24.1 9.125H7.925c-1.112 0-2.056.944-2.056 2.056v9.387c0 .313-.25.563-.563.563s-.563-.25-.563-.563v-9.387A3.182 3.182 0 0 1 7.924 8h16.175a3.174 3.174 0 0 1 3.163 3.181v9.637c-.006 1.756-1.419 3.181-3.163 3.181z"/></symbol><symbol id="icon-search" viewBox="0 0 32 32"><path d="m31.008 27.231-7.58-6.447c-.784-.705-1.622-1.029-2.299-.998a11.954 11.954 0 0 0 2.87-7.787c0-6.627-5.373-12-12-12s-12 5.373-12 12 5.373 12 12 12c2.972 0 5.691-1.081 7.787-2.87-.031.677.293 1.515.998 2.299l6.447 7.58c1.104 1.226 2.907 1.33 4.007.23s.997-2.903-.23-4.007zM12 20a8 8 0 1 1 0-16 8 8 0 0 1 0 16z"/></symbol><symbol id="icon-circle-up" viewBox="0 0 32 32"><path d="M0 16c0 8.837 7.163 16 16 16s16-7.163 16-16S24.837 0 16 0 0 7.163 0 16zm29 0c0 7.18-5.82 13-13 13S3 23.18 3 16 8.82 3 16 3s13 5.82 13 13z"/><path d="m22.086 20.914 2.829-2.829-8.914-8.914-8.914 8.914 2.828 2.828 6.086-6.086z"/></symbol></defs></svg>