<svg aria-hidden="true" style="position: absolute; width: 0; height: 0; overflow: hidden;" version="1.1" xmlns="http://www.w3.org/2000/svg" xmlns:xlink="http://www.w3.org/1999/xlink">
<defs>
<symbol id="icon-burger" viewBox="0 0 32 32">
<path fill="" style="fill: var(--color1, )" d="M32 16c0 8.837-7.163 16-16 16s-16-7.163-16-16c0-8.837 7.163-16 16-16s16 7.163 16 16z"></path>
<path fill="" style="fill: var(--color1, )" d="M16 29.333c-7.352 0-13.333-5.981-13.333-13.333s5.981-13.333 13.333-13.333c7.352 0 13.333 5.981 13.333 13.333s-5.981 13.333-13.333 13.333z"></path>
<path fill="" style="fill: var(--color1, )" opacity="0.3" d="M12.861 10.931c0 1.066-0.864 1.931-1.931 1.931s-1.931-0.864-1.931-1.931c0-1.066 0.864-1.931 1.931-1.931s1.931 0.864 1.931 1.931z"></path>
<path fill="" style="fill: var(--color1, )" opacity="0.3" d="M18.431 10.931c0 1.066-0.864 1.931-1.931 1.931s-1.931-0.864-1.931-1.931c0-1.066 0.864-1.931 1.931-1.931s1.931 0.864 1.931 1.931z"></path>
<path fill="" style="fill: var(--color1, )" opacity="0.3" d="M24 10.931c0 1.066-0.864 1.931-1.931 1.931s-1.931-0.864-1.931-1.931c0-1.066 0.864-1.931 1.931-1.931s1.931 0.864 1.931 1.931z"></path>
<path fill="" style="fill: var(--color1, )" opacity="0.3" d="M12.861 16.5c0 1.066-0.864 1.931-1.931 1.931s-1.931-0.864-1.931-1.931c0-1.066 0.864-1.931 1.931-1.931s1.931 0.864 1.931 1.931z"></path>
<path fill="" style="fill: var(--color1, )" opacity="0.3" d="M18.431 16.5c0 1.066-0.864 1.931-1.931 1.931s-1.931-0.864-1.931-1.931c0-1.066 0.864-1.931 1.931-1.931s1.931 0.864 1.931 1.931z"></path>
<path fill="" style="fill: var(--color1, )" opacity="0.3" d="M24 16.5c0 1.066-0.864 1.931-1.931 1.931s-1.931-0.864-1.931-1.931c0-1.066 0.864-1.931 1.931-1.931s1.931 0.864 1.931 1.931z"></path>
<path fill="" style="fill: var(--color1, )" opacity="0.3" d="M12.861 22.069c0 1.066-0.864 1.931-1.931 1.931s-1.931-0.864-1.931-1.931c0-1.066 0.864-1.931 1.931-1.931s1.931 0.864 1.931 1.931z"></path>
<path fill="" style="fill: var(--color1, )" opacity="0.3" d="M18.431 22.069c0 1.066-0.864 1.931-1.931 1.931s-1.931-0.864-1.931-1.931c0-1.066 0.864-1.931 1.931-1.931s1.931 0.864 1.931 1.931z"></path>
<path fill="" style="fill: var(--color1, )" opacity="0.3" d="M24 22.069c0 1.066-0.864 1.931-1.931 1.931s-1.931-0.864-1.931-1.931c0-1.066 0.864-1.931 1.931-1.931s1.931 0.864 1.931 1.931z"></path>
<path fill="#fff" style="fill: var(--color2, #fff)" d="M12.361 10.431c0 1.066-0.864 1.931-1.931 1.931s-1.931-0.864-1.931-1.931c0-1.066 0.864-1.931 1.931-1.931s1.931 0.864 1.931 1.931z"></path>
<path fill="#fff" style="fill: var(--color2, #fff)" d="M17.931 10.431c0 1.066-0.864 1.931-1.931 1.931s-1.931-0.864-1.931-1.931c0-1.066 0.864-1.931 1.931-1.931s1.931 0.864 1.931 1.931z"></path>
<path fill="#fff" style="fill: var(--color2, #fff)" d="M23.5 10.431c0 1.066-0.864 1.931-1.931 1.931s-1.931-0.864-1.931-1.931c0-1.066 0.864-1.931 1.931-1.931s1.931 0.864 1.931 1.931z"></path>
<path fill="#fff" style="fill: var(--color2, #fff)" d="M12.361 16c0 1.066-0.864 1.931-1.931 1.931s-1.931-0.864-1.931-1.931c0-1.066 0.864-1.931 1.931-1.931s1.931 0.864 1.931 1.931z"></path>
<path fill="#fff" style="fill: var(--color2, #fff)" d="M17.931 16c0 1.066-0.864 1.931-1.931 1.931s-1.931-0.864-1.931-1.931c0-1.066 0.864-1.931 1.931-1.931s1.931 0.864 1.931 1.931z"></path>
<path fill="#fff" style="fill: var(--color2, #fff)" d="M23.5 16c0 1.066-0.864 1.931-1.931 1.931s-1.931-0.864-1.931-1.931c0-1.066 0.864-1.931 1.931-1.931s1.931 0.864 1.931 1.931z"></path>
<path fill="#fff" style="fill: var(--color2, #fff)" d="M12.361 21.569c0 1.066-0.864 1.931-1.931 1.931s-1.931-0.864-1.931-1.931c0-1.066 0.864-1.931 1.931-1.931s1.931 0.864 1.931 1.931z"></path>
<path fill="#fff" style="fill: var(--color2, #fff)" d="M17.931 21.569c0 1.066-0.864 1.931-1.931 1.931s-1.931-0.864-1.931-1.931c0-1.066 0.864-1.931 1.931-1.931s1.931 0.864 1.931 1.931z"></path>
<path fill="#fff" style="fill: var(--color2, #fff)" d="M23.5 21.569c0 1.066-0.864 1.931-1.931 1.931s-1.931-0.864-1.931-1.931c0-1.066 0.864-1.931 1.931-1.931s1.931 0.864 1.931 1.931z"></path>
</symbol>
<symbol id="icon-close" viewBox="0 0 32 32">
<path d="M16 2.667c-7.364 0-13.333 5.97-13.333 13.333s5.97 13.333 13.333 13.333c7.364 0 13.333-5.97 13.333-13.333v0c0-7.364-5.97-13.333-13.333-13.333v0zM19.613 17.72c0.244 0.242 0.394 0.577 0.394 0.947s-0.151 0.705-0.394 0.947l-0 0c-0.242 0.244-0.577 0.394-0.947 0.394s-0.705-0.151-0.947-0.394l-0-0-1.72-1.733-1.72 1.733c-0.242 0.244-0.577 0.394-0.947 0.394s-0.705-0.151-0.947-0.394l-0-0c-0.244-0.242-0.394-0.577-0.394-0.947s0.151-0.705 0.394-0.947l0-0 1.733-1.72-1.733-1.72c-0.242-0.242-0.392-0.577-0.392-0.947 0-0.739 0.599-1.339 1.339-1.339 0.37 0 0.704 0.15 0.947 0.392v0l1.72 1.733 1.72-1.733c0.242-0.242 0.577-0.392 0.947-0.392 0.739 0 1.339 0.599 1.339 1.339 0 0.37-0.15 0.704-0.392 0.947v0l-1.733 1.72z"></path>
</symbol>
<symbol id="icon-search" viewBox="0 0 32 32">
<path d="M31.008 27.231l-7.58-6.447c-0.784-0.705-1.622-1.029-2.299-0.998 1.789-2.096 2.87-4.815 2.87-7.787 0-6.627-5.373-12-12-12s-12 5.373-12 12 5.373 12 12 12c2.972 0 5.691-1.081 7.787-2.87-0.031 0.677 0.293 1.515 0.998 2.299l6.447 7.58c1.104 1.226 2.907 1.33 4.007 0.23s0.997-2.903-0.23-4.007zM12 20c-4.418 0-8-3.582-8-8s3.582-8 8-8 8 3.582 8 8-3.582 8-8 8z"></path>
</symbol>
<symbol id="icon-circle-up" viewBox="0 0 32 32">
<path d="M0 16c0 8.837 7.163 16 16 16s16-7.163 16-16-7.163-16-16-16-16 7.163-16 16zM29 16c0 7.18-5.82 13-13 13s-13-5.82-13-13 5.82-13 13-13 13 5.82 13 13z"></path>
<path d="M22.086 20.914l2.829-2.829-8.914-8.914-8.914 8.914 2.828 2.828 6.086-6.086z"></path>
</symbol>
</defs>
</svg>
