<svg aria-hidden="true" style="position: absolute; width: 0; height: 0; overflow: hidden;" version="1.1" xmlns="http://www.w3.org/2000/svg" xmlns:xlink="http://www.w3.org/1999/xlink">
<defs>
<symbol id="icon-fb_icon" viewBox="0 0 32 32">
<path d="M16.175 31.7c-8.65 0.038-15.762-7.162-15.556-15.956 0.194-8.375 7.131-15.294 15.756-15.2 8.544 0.094 15.613 7.206 15.381 16.012-0.219 8.337-7.1 15.188-15.581 15.144zM2.513 16.144c0.069 7.831 6.419 13.863 13.919 13.731 7.262-0.131 13.419-6.050 13.419-13.75 0-7.831-6.4-13.887-13.925-13.744-7.262 0.131-13.363 6.069-13.412 13.762z"></path>
<path d="M12.925 27.087c0-3.681 0-7.331 0-11.019-0.813 0-1.6 0-2.406 0 0-1.25 0-2.463 0-3.713 0.106-0.006 0.213-0.019 0.325-0.019 0.581 0 1.169-0.012 1.75 0.006 0.256 0.006 0.344-0.063 0.338-0.325-0.012-0.95-0.012-1.894-0.006-2.844 0.006-1.069 0.306-2.037 1.069-2.813 0.738-0.75 1.681-1.156 2.706-1.219 1.65-0.094 3.306-0.081 4.963-0.112 0.019 0 0.038 0.019 0.075 0.037 0 1.256 0 2.519 0 3.813-0.119 0.006-0.231 0.012-0.337 0.012-0.75 0-1.5 0-2.25 0-0.756 0.006-1.2 0.456-1.2 1.2 0 0.706 0 1.419 0.006 2.125 0 0.019 0.012 0.037 0.031 0.106 1.238 0 2.488 0 3.8 0-0.163 1.269-0.313 2.481-0.475 3.738-1.131 0-2.238 0-3.375 0 0 3.7 0 7.363 0 11.037-1.681-0.012-3.319-0.012-5.012-0.012z"></path>
</symbol>
<symbol id="icon-instagram" viewBox="0 0 32 32">
<path d="M31.563 16.063c0 2.175-0.044 4.356 0.012 6.531 0.094 3.85-2.325 6.825-5.406 8.15-1.238 0.531-2.538 0.813-3.881 0.813-4.206 0.006-8.419 0.063-12.625-0.019-3.169-0.063-5.775-1.387-7.644-4-0.981-1.375-1.45-2.938-1.45-4.631 0-4.481 0-8.956 0-13.438 0-3.656 1.781-6.213 4.944-7.875 1.375-0.719 2.869-1.025 4.425-1.031 4.081 0 8.169-0.025 12.25 0.012 3.169 0.025 5.813 1.238 7.762 3.787 1.087 1.425 1.613 3.063 1.613 4.862 0 2.275 0 4.556 0 6.838zM2.875 16.063c0 2.294 0 4.581 0 6.875 0 1.025 0.237 1.988 0.769 2.856 1.394 2.281 3.5 3.394 6.112 3.438 4.194 0.063 8.394 0.025 12.594 0.012 1.031 0 2.031-0.212 2.962-0.656 2.538-1.212 3.956-3.144 3.944-6.044-0.025-4.438-0.006-8.875-0.006-13.313 0-1.256-0.356-2.406-1.1-3.419-1.438-1.944-3.425-2.9-5.8-2.925-4.188-0.050-8.375-0.019-12.563-0.013-0.894 0-1.756 0.181-2.594 0.494-2.3 0.856-4.438 3.025-4.338 6.219 0.075 2.162 0.019 4.319 0.019 6.475z"></path>
<path d="M16.1 22.688c-4.031 0-7.281-3.212-7.287-7.213-0.006-3.938 3.269-7.162 7.275-7.162 4.019-0.006 7.281 3.213 7.287 7.181 0 3.963-3.256 7.187-7.275 7.194zM16.1 20.375c2.744 0 4.969-2.194 4.962-4.894-0.006-2.675-2.231-4.863-4.962-4.863-2.744 0-4.981 2.181-4.981 4.875 0.006 2.7 2.238 4.887 4.981 4.881z"></path>
<path d="M24.219 6.125c0.844 0 1.531 0.719 1.531 1.6-0.006 0.881-0.7 1.594-1.544 1.588-0.831-0.006-1.512-0.719-1.512-1.581-0.006-0.881 0.681-1.606 1.525-1.606z"></path>
</symbol>
<symbol id="icon-Twitter" viewBox="0 0 32 32">
<path d="M16.009 2.481c-7.454 0-13.518 6.064-13.518 13.519s6.064 13.519 13.518 13.519c7.454 0 13.519-6.064 13.519-13.519s-6.065-13.519-13.519-13.519zM16.009 28.185c-6.719 0-12.185-5.466-12.185-12.185s5.466-12.185 12.185-12.185 12.186 5.466 12.186 12.185c-0 6.719-5.467 12.185-12.186 12.185z"></path>
<path d="M22.046 11.596c0.311-0.16 1.055-0.637 1.405-1.66 0 0-0.845 0.611-1.995 0.683l-0.021 0.012c-0.588-0.642-1.434-1.045-2.375-1.045-1.78 0-3.222 1.443-3.222 3.222 0 0.27 0.034 0.532 0.096 0.783l-0.016-0.023c0 0-3.451 0.198-6.705-3.362 0 0-1.438 2.445 1.024 4.314-0.539 0.090-1.492-0.396-1.492-0.396s0.054 2.57 2.606 3.2c-0.413 0.108-1.186 0.144-1.438 0.036 0 0 0.377 1.959 2.984 2.301-0.665 0.378-1.905 1.528-4.71 1.312 0 0 2.014 1.654 5.753 1.42s6.453-2.75 7.55-5.411c1.096-2.66 0.791-4.175 0.791-4.175s0.916-0.481 1.546-1.631c-0.291 0.087-1.37 0.351-1.771 0.448-0.004-0.009-0.008-0.019-0.012-0.028z"></path>
</symbol>
<symbol id="icon-youtube" viewBox="0 0 32 32">
<path fill="" style="fill: var(--color1, )" d="M13.731 19.581c-0.194 0-0.381-0.1-0.488-0.281-0.156-0.269-0.063-0.613 0.206-0.769l4.912-2.844-4.069-2.419v3.087c0 0.313-0.25 0.563-0.563 0.563s-0.563-0.25-0.563-0.563v-4.075c0-0.2 0.106-0.387 0.287-0.488s0.394-0.1 0.569 0.006l5.744 3.419c0.169 0.1 0.275 0.287 0.275 0.488s-0.106 0.381-0.281 0.481l-5.744 3.325c-0.094 0.044-0.188 0.069-0.287 0.069z"></path>
<path fill="" style="fill: var(--color1, )" d="M24.1 24h-16.45c-0.313 0-0.563-0.25-0.563-0.563s0.25-0.563 0.563-0.563h16.45c1.125 0 2.038-0.925 2.038-2.056v-9.637c0-1.137-0.913-2.056-2.038-2.056h-16.175c-1.112 0-2.056 0.944-2.056 2.056v9.387c0 0.313-0.25 0.563-0.563 0.563s-0.563-0.25-0.563-0.563v-9.387c0-1.756 1.425-3.181 3.181-3.181h16.175c1.744 0 3.163 1.425 3.163 3.181v9.637c-0.006 1.756-1.419 3.181-3.163 3.181z"></path>
</symbol>
<symbol id="icon-search" viewBox="0 0 32 32">
<path d="M31.008 27.231l-7.58-6.447c-0.784-0.705-1.622-1.029-2.299-0.998 1.789-2.096 2.87-4.815 2.87-7.787 0-6.627-5.373-12-12-12s-12 5.373-12 12 5.373 12 12 12c2.972 0 5.691-1.081 7.787-2.87-0.031 0.677 0.293 1.515 0.998 2.299l6.447 7.58c1.104 1.226 2.907 1.33 4.007 0.23s0.997-2.903-0.23-4.007zM12 20c-4.418 0-8-3.582-8-8s3.582-8 8-8 8 3.582 8 8-3.582 8-8 8z"></path>
</symbol>
<symbol id="icon-circle-up" viewBox="0 0 32 32">
<path d="M0 16c0 8.837 7.163 16 16 16s16-7.163 16-16-7.163-16-16-16-16 7.163-16 16zM29 16c0 7.18-5.82 13-13 13s-13-5.82-13-13 5.82-13 13-13 13 5.82 13 13z"></path>
<path d="M22.086 20.914l2.829-2.829-8.914-8.914-8.914 8.914 2.828 2.828 6.086-6.086z"></path>
</symbol>
</defs>
</svg>
