<svg aria-hidden="true" style="position: absolute; width: 0; height: 0; overflow: hidden;" version="1.1" xmlns="http://www.w3.org/2000/svg" xmlns:xlink="http://www.w3.org/1999/xlink">
<defs>
<symbol id="icon-youtube-icon" viewBox="0 0 32 32">
<path fill="" style="fill: var(--color1, )" d="M31.302 8.298c-0.384-1.383-1.451-2.451-2.806-2.828l-0.028-0.007c-2.485-0.678-12.487-0.678-12.487-0.678s-10.002 0.020-12.488 0.699c-1.383 0.384-2.451 1.451-2.828 2.806l-0.007 0.028c-0.657 2.486-0.657 7.682-0.657 7.682s0 5.197 0.678 7.702c0.384 1.383 1.451 2.451 2.806 2.828l0.028 0.007c2.485 0.678 12.488 0.678 12.488 0.678s10.002 0 12.488-0.678c1.383-0.384 2.451-1.451 2.828-2.806l0.007-0.028c0.677-2.485 0.677-7.703 0.677-7.703s-0.020-5.197-0.698-7.702z"></path>
<path fill="#433840" style="fill: var(--color2, #433840)" d="M12.796 20.806l8.297-4.806-8.298-4.806z"></path>
</symbol>
<symbol id="icon-search" viewBox="0 0 32 32">
<path d="M31.008 27.231l-7.58-6.447c-0.784-0.705-1.622-1.029-2.299-0.998 1.789-2.096 2.87-4.815 2.87-7.787 0-6.627-5.373-12-12-12s-12 5.373-12 12 5.373 12 12 12c2.972 0 5.691-1.081 7.787-2.87-0.031 0.677 0.293 1.515 0.998 2.299l6.447 7.58c1.104 1.226 2.907 1.33 4.007 0.23s0.997-2.903-0.23-4.007zM12 20c-4.418 0-8-3.582-8-8s3.582-8 8-8 8 3.582 8 8-3.582 8-8 8z"></path>
</symbol>
<symbol id="icon-circle-up" viewBox="0 0 32 32">
<path d="M0 16c0 8.837 7.163 16 16 16s16-7.163 16-16-7.163-16-16-16-16 7.163-16 16zM29 16c0 7.18-5.82 13-13 13s-13-5.82-13-13 5.82-13 13-13 13 5.82 13 13z"></path>
<path d="M22.086 20.914l2.829-2.829-8.914-8.914-8.914 8.914 2.828 2.828 6.086-6.086z"></path>
</symbol>
</defs>
</svg>
